<svg viewBox="0 0 779 999" xmlns="http://www.w3.org/2000/svg"><path d="m55 558 60-131-6-44-48-217 3-87 24-79 123 35 154 84 62-7 174-16 38-26 21 25-15 57-40 2-27 19 47 70 47-10 79 13 6-37 22 27-8 105-34 102-58 91-11 53 10 27 13 24-4 67-23 51-29 106 2 27 13-2 13 65-21-4-24 33-99 16-47-38-91 40-249-146-132-197z" fill="#0071cd"/><g transform="matrix(5.34883721 0 0 5.34883721 383 508)"><circle fill="#0071cd" r="37.5" stroke="#fff" stroke-width="11"/><path d="m-14.5-17.5v35h16.5a17.5 17.5 0 0 0 0-35zm10 8.5h5a9 9 0 0 1 0 18h-5z" fill="#fff"/></g></svg>