<svg viewBox="0 0 779 999" xmlns="http://www.w3.org/2000/svg"><path d="m0 656 19-33 17-31 6-11 1-1 12-22 1-1 21-46 2-5 22-49 1-3 9-20 3-7v-5l-4-32-1-7-1-5-1-4-4-20-1-5-14-64-15-70v-1l-1-5-7-26v-1l-4-16-1-29 4-59 24-78 73 21 5 2 16 4 29 8 9 5 3 2 15 8 11 6 2 1 20 11 8 4 7 4 6 3 40 22v3l2-2 15 8 4 3 7 4 5 2h6l56-7 27-3 59-7h2l16-2 20-3h36l14-1 35-24 3-2 4 3 5-2 3 1 1 2 1 8 2 3 3 2 2 3v5l-5 7-4 11v8l3 8 1 5-2 5-3 6-4 4-1 3-7 4-9-4-8 1-16 1-9 1-8 3-9 5-1 1-2 3 3 6 18 28 14 21 7 10h10l-2 8-1 3 19-2 23-3 3-1 2-4 53 17 6-1 20-3 2-14 4-23 10 13 2 2 10 12v1l-1 3-1 12-5 39 1 25v10l-1 11-1 4v2l-2 4-3 11v4l-2 4-6 19-4 10-3 4-3 7-9 18v2l-1 3-1 14-11 16-6 8-7 14-7 7-6 13-1 7v6l-20 20-4 23v1l-1 3 1 6-7 20 5 13v1l5 13 8 18 5 6v15 7 10l1 5-1 4-2 9 1 7-3 10-3 5-5 9-4 5-7 28-4 4-12 53-5 15-12 38v2l2 25 13-2 12 62 1 3-2-4h-1l-12-2-5 2-2 1-2 4-5 5-4 6-2 7-6 7-4 3-8 1-3 3-13 1-9-3-6 3-7 3-5 5-7-6-5-1-6 2-6 5h-5l-6-2h-6l-7 5-3-4-5-5-5-2-3-7-4-4-4-2-5-1-7-5h-4l-2-1-3-4-2-3-6 3-50 22-18 8-9 4-8 3-18-11-16-10-12-7-33-19-26-15-13-8-24-14-13-7-21-13-30-17-41-24-2-1-38-58-16-23-10-16-11-16-34-51-6-8-6-9z" fill="#0071cd"/><g transform="matrix(4.65116279 0 0 4.65116279 383 508)"><circle fill="#0071cd" r="37.5" stroke="#fff" stroke-width="11"/><path d="m-14.5-17.5v35h16.5a17.5 17.5 0 0 0 0-35zm10 8.5h5a9 9 0 0 1 0 18h-5z" fill="#fff"/></g></svg>